<svg width="905" height="595" viewBox="0 0 905 595" fill="none" xmlns="http://www.w3.org/2000/svg">
<g clip-path="url(#clip0_775_1842)">
<rect width="595" height="905" transform="translate(0 595) rotate(-90)" fill="url(#paint0_linear_775_1842)"/>
<path d="M541.417 818.901L540.048 817.22L1060.63 393.133L1061.99 394.813L541.417 818.901Z" fill="white"/>
<path d="M541.364 806.404L539.994 804.728L1060.57 380.641L1061.94 382.317L541.364 806.404Z" fill="white"/>
<path d="M541.31 793.908L539.944 792.232L1060.52 368.145L1061.89 369.825L541.31 793.908Z" fill="white"/>
<path d="M541.265 781.412L539.896 779.735L1060.47 355.648L1061.84 357.329L541.265 781.412Z" fill="white"/>
<path d="M541.212 768.92L539.843 767.239L1060.42 343.152L1061.79 344.833L541.212 768.92Z" fill="white"/>
<path d="M541.159 756.424L539.789 754.743L1060.37 330.66L1061.74 332.336L541.159 756.424Z" fill="white"/>
<path d="M541.106 743.931L539.74 742.251L1060.31 318.163L1061.68 319.84L541.106 743.931Z" fill="white"/>
<path d="M541.06 731.435L539.69 729.755L1060.27 305.667L1061.63 307.348L541.06 731.435Z" fill="white"/>
<path d="M541.007 718.939L539.638 717.258L1060.21 293.171L1061.58 294.852L541.007 718.939Z" fill="white"/>
<path d="M540.954 706.443L539.584 704.766L1060.16 280.679L1061.53 282.356L540.954 706.443Z" fill="white"/>
<path d="M540.901 693.947L539.535 692.27L1060.11 268.183L1061.48 269.86L540.901 693.947Z" fill="white"/>
<path d="M540.855 681.451L539.485 679.774L1060.06 255.687L1061.43 257.367L540.855 681.451Z" fill="white"/>
<path d="M80.26 374.278C65.5414 374.699 15.9539 366.739 -7 362.706L-7 383.746L11.3982 387.428L55.0282 399L153.327 387.428L179.085 362.706L253.729 279.598L324.693 197.542L372.003 212.27L467.673 309.054L588.05 176.502L807.252 396.37L925 383.746L921.32 364.284L807.252 374.278L588.05 150.728L467.673 279.598L424.043 234.888L410.902 217.53L380.413 136L298.41 197.542C251.451 249.265 154.378 355.763 141.763 367.966C125.993 383.22 98.6582 373.752 80.26 374.278Z" fill="white"/>
<g filter="url(#filter0_d_775_1842)">
<rect width="452" height="595" fill="#EDEDED"/>
</g>
<path d="M-318.729 241.234L-316.655 239.566L259.334 829.592L257.26 831.261L-318.729 241.234Z" fill="white"/>
<path d="M-302.691 240.652L-300.621 238.983L275.368 829.009L273.299 830.678L-302.691 240.652Z" fill="white"/>
<path d="M-286.652 240.068L-284.583 238.404L291.406 828.431L289.332 830.095L-286.652 240.068Z" fill="white"/>
<path d="M-270.614 239.494L-268.545 237.826L307.445 827.852L305.37 829.516L-270.614 239.494Z" fill="white"/>
<path d="M-254.581 238.912L-252.506 237.243L323.483 827.27L321.408 828.938L-254.581 238.912Z" fill="white"/>
<path d="M-238.543 238.329L-236.468 236.66L339.516 826.687L337.446 828.355L-238.543 238.329Z" fill="white"/>
<path d="M-222.509 237.745L-220.435 236.082L355.555 826.103L353.485 827.772L-222.509 237.745Z" fill="white"/>
<path d="M-206.471 237.171L-204.397 235.503L371.592 825.529L369.518 827.193L-206.471 237.171Z" fill="white"/>
<path d="M-190.433 236.588L-188.359 234.92L387.63 824.946L385.556 826.615L-190.433 236.588Z" fill="white"/>
<path d="M-174.395 236.006L-172.325 234.337L403.664 824.363L401.594 826.032L-174.395 236.006Z" fill="white"/>
<path d="M-158.356 235.422L-156.287 233.758L419.702 823.78L417.633 825.449L-158.356 235.422Z" fill="white"/>
<path d="M-142.319 234.849L-140.249 233.18L435.74 823.207L433.666 824.87L-142.319 234.849Z" fill="white"/>
<path d="M851 736L905 736L905 225L866 225C857.716 225 851 231.716 851 240L851 736Z" fill="#FEE296"/>
</g>
<rect y="343" width="452" height="252" fill="url(#paint1_linear_775_1842)"/>
<defs>
<filter id="filter0_d_775_1842" x="-4" y="0" width="460" height="603" filterUnits="userSpaceOnUse" color-interpolation-filters="sRGB">
<feFlood flood-opacity="0" result="BackgroundImageFix"/>
<feColorMatrix in="SourceAlpha" type="matrix" values="0 0 0 0 0 0 0 0 0 0 0 0 0 0 0 0 0 0 127 0" result="hardAlpha"/>
<feOffset dy="4"/>
<feGaussianBlur stdDeviation="2"/>
<feComposite in2="hardAlpha" operator="out"/>
<feColorMatrix type="matrix" values="0 0 0 0 0 0 0 0 0 0 0 0 0 0 0 0 0 0 0.15 0"/>
<feBlend mode="normal" in2="BackgroundImageFix" result="effect1_dropShadow_775_1842"/>
<feBlend mode="normal" in="SourceGraphic" in2="effect1_dropShadow_775_1842" result="shape"/>
</filter>
<linearGradient id="paint0_linear_775_1842" x1="-1.46072e-05" y1="905" x2="608.5" y2="159.5" gradientUnits="userSpaceOnUse">
<stop stop-color="#00ADEE"/>
<stop offset="1" stop-color="#7E89A1"/>
</linearGradient>
<linearGradient id="paint1_linear_775_1842" x1="241.5" y1="595" x2="241.72" y2="346.519" gradientUnits="userSpaceOnUse">
<stop stop-color="#70D8FE"/>
<stop offset="1" stop-color="#D9D9D9" stop-opacity="0"/>
</linearGradient>
<clipPath id="clip0_775_1842">
<rect width="595" height="905" fill="white" transform="translate(0 595) rotate(-90)"/>
</clipPath>
</defs>
</svg>
