<svg width="12" height="12" viewBox="0 0 12 12" fill="none" xmlns="http://www.w3.org/2000/svg">
<path d="M7.6 11.6H7.2C7.2 11.7515 7.2856 11.89 7.42111 11.9578C7.55663 12.0255 7.71879 12.0109 7.84 11.92L7.6 11.6ZM9.2 10.4L9.44 10.08C9.29776 9.97336 9.10224 9.97336 8.96 10.08L9.2 10.4ZM10.8 11.6L10.56 11.92C10.6812 12.0109 10.8434 12.0255 10.9789 11.9578C11.1144 11.89 11.2 11.7515 11.2 11.6H10.8ZM9.2 8.8C8.09544 8.8 7.2 7.90457 7.2 6.8H6.4C6.4 8.3464 7.6536 9.6 9.2 9.6V8.8ZM11.2 6.8C11.2 7.90457 10.3046 8.8 9.2 8.8V9.6C10.7464 9.6 12 8.3464 12 6.8H11.2ZM9.2 4.8C10.3046 4.8 11.2 5.69543 11.2 6.8H12C12 5.2536 10.7464 4 9.2 4V4.8ZM9.2 4C7.6536 4 6.4 5.2536 6.4 6.8H7.2C7.2 5.69543 8.09544 4.8 9.2 4.8V4ZM7.2 8.4V11.6H8V8.4H7.2ZM7.84 11.92L9.44 10.72L8.96 10.08L7.36 11.28L7.84 11.92ZM8.96 10.72L10.56 11.92L11.04 11.28L9.44 10.08L8.96 10.72ZM11.2 11.6V8.4H10.4V11.6H11.2ZM12 4V1.2H11.2V4H12ZM10.8 0H1.2V0.8H10.8V0ZM0 1.2V10.8H0.8V1.2H0ZM1.2 12H6.4V11.2H1.2V12ZM0 10.8C0 11.4627 0.537258 12 1.2 12V11.2C0.979088 11.2 0.8 11.0209 0.8 10.8H0ZM1.2 0C0.537259 0 0 0.537258 0 1.2H0.8C0.8 0.979088 0.979088 0.8 1.2 0.8V0ZM12 1.2C12 0.537258 11.4627 0 10.8 0V0.8C11.0209 0.8 11.2 0.979088 11.2 1.2H12ZM2.4 4H6.4V3.2H2.4V4ZM2.4 6.4H4.8V5.6H2.4V6.4Z" fill="#EC8222"/>
</svg>
