<svg width="81" height="81" viewBox="0 0 81 81" fill="none" xmlns="http://www.w3.org/2000/svg">
<path fill-rule="evenodd" clip-rule="evenodd" d="M69.2825 45.2971L59.6883 35.7029C58.3636 34.3782 56.2159 34.3782 54.8912 35.7029C53.6612 36.933 53.5733 38.8727 54.6276 40.2041L54.8912 40.5L64.4854 50.0942C68.4594 54.0682 68.4594 60.5114 64.4854 64.4854C60.6533 68.3175 54.5253 68.4543 50.5292 64.896L50.0942 64.4854L40.5 54.8912C39.1753 53.5666 37.0276 53.5666 35.7029 54.8912C34.4729 56.1213 34.385 58.061 35.4393 59.3924L35.7029 59.6883L45.2971 69.2825C51.9205 75.9058 62.6591 75.9058 69.2825 69.2825C75.7315 62.8334 75.9013 52.4828 69.7916 45.8284L69.2825 45.2971ZM35.7029 11.7175C29.0795 5.09415 18.3409 5.09415 11.7175 11.7175C5.09415 18.3409 5.09415 29.0795 11.7175 35.7029L21.3117 45.2971C22.6364 46.6218 24.7841 46.6218 26.1088 45.2971C27.4334 43.9724 27.4334 41.8247 26.1088 40.5L16.5146 30.9058C12.5406 26.9318 12.5406 20.4886 16.5146 16.5146C20.4886 12.5406 26.9318 12.5406 30.9058 16.5146L40.5 26.1088C41.8247 27.4334 43.9724 27.4334 45.2971 26.1088C46.6218 24.7841 46.6218 22.6364 45.2971 21.3117L35.7029 11.7175ZM35.7029 30.9058C34.3782 29.5812 32.2305 29.5812 30.9058 30.9058C29.5812 32.2305 29.5812 34.3782 30.9058 35.7029L45.2971 50.0942C46.6218 51.4188 48.7695 51.4188 50.0942 50.0942C51.4188 48.7695 51.4188 46.6218 50.0942 45.2971L35.7029 30.9058Z" fill="#EC8222"/>
</svg>
