<svg width="12" height="16" viewBox="0 0 12 16" fill="none" xmlns="http://www.w3.org/2000/svg">
<path d="M10.5 0H1.5C1.10218 0 0.720636 0.158042 0.439331 0.439346C0.158026 0.720651 0 1.10218 0 1.5V16H12V1.5C12 1.10218 11.842 0.720651 11.5607 0.439346C11.2794 0.158042 10.8978 0 10.5 0ZM5 15V12H7V15H5ZM11 15H8V11.5C8 11.3674 7.94731 11.2402 7.85355 11.1465C7.75978 11.0527 7.63261 11 7.5 11H4.5C4.36739 11 4.24022 11.0527 4.14645 11.1465C4.05269 11.2402 4 11.3674 4 11.5V15H1V1.5C1 1.36739 1.05269 1.24022 1.14645 1.14645C1.24022 1.05269 1.36739 1 1.5 1H10.5C10.6326 1 10.7598 1.05269 10.8535 1.14645C10.9473 1.24022 11 1.36739 11 1.5V15ZM3 3H5V5H3V3ZM7 3H9V5H7V3ZM3 7H5V9H3V7ZM7 7H9V9H7V7Z" fill="#636363"/>
</svg>
